<?xml version="1.0" encoding="utf-8" standalone="no"?>
<!DOCTYPE svg PUBLIC "-//W3C//DTD SVG 1.1//EN"
  "http://www.w3.org/Graphics/SVG/1.1/DTD/svg11.dtd">
<svg xmlns:xlink="http://www.w3.org/1999/xlink" width="1008pt" height="432pt" viewBox="0 0 1008 432" xmlns="http://www.w3.org/2000/svg" version="1.1">
 <metadata>
  <rdf:RDF xmlns:dc="http://purl.org/dc/elements/1.1/" xmlns:cc="http://creativecommons.org/ns#" xmlns:rdf="http://www.w3.org/1999/02/22-rdf-syntax-ns#">
   <cc:Work>
    <dc:type rdf:resource="http://purl.org/dc/dcmitype/StillImage"/>
    <dc:date>2025-02-23T12:50:45.677504</dc:date>
    <dc:format>image/svg+xml</dc:format>
    <dc:creator>
     <cc:Agent>
      <dc:title>Matplotlib v3.9.0, https://matplotlib.org/</dc:title>
     </cc:Agent>
    </dc:creator>
   </cc:Work>
  </rdf:RDF>
 </metadata>
 <defs>
  <style type="text/css">*{stroke-linejoin: round; stroke-linecap: butt}</style>
 </defs>
 <g id="figure_1">
  <g id="patch_1">
   <path d="M 0 432 
L 1008 432 
L 1008 0 
L 0 0 
z
" style="fill: #ffffff"/>
  </g>
  <g id="axes_1">
   <g id="patch_2">
    <path d="M 126 384.48 
L 907.2 384.48 
L 907.2 51.84 
L 126 51.84 
z
" style="fill: #ffffff"/>
   </g>
   <g id="matplotlib.axis_1">
    <g id="xtick_1">
     <g id="line2d_1">
      <defs>
       <path id="mde55d9ef5f" d="M 0 0 
L 0 3.5 
" style="stroke: #000000; stroke-width: 0.8"/>
      </defs>
      <g>
       <use xlink:href="#mde55d9ef5f" x="126" y="384.48" style="stroke: #000000; stroke-width: 0.8"/>
      </g>
     </g>
     <g id="text_1">
      <!-- Jan -->
      <g transform="translate(118.292187 399.078438) scale(0.1 -0.1)">
       <defs>
        <path id="DejaVuSans-4a" d="M 628 4666 
L 1259 4666 
L 1259 325 
Q 1259 -519 939 -900 
Q 619 -1281 -91 -1281 
L -331 -1281 
L -331 -750 
L -134 -750 
Q 284 -750 456 -515 
Q 628 -281 628 325 
L 628 4666 
z
" transform="scale(0.015625)"/>
        <path id="DejaVuSans-61" d="M 2194 1759 
Q 1497 1759 1228 1600 
Q 959 1441 959 1056 
Q 959 750 1161 570 
Q 1363 391 1709 391 
Q 2188 391 2477 730 
Q 2766 1069 2766 1631 
L 2766 1759 
L 2194 1759 
z
M 3341 1997 
L 3341 0 
L 2766 0 
L 2766 531 
Q 2569 213 2275 61 
Q 1981 -91 1556 -91 
Q 1019 -91 701 211 
Q 384 513 384 1019 
Q 384 1609 779 1909 
Q 1175 2209 1959 2209 
L 2766 2209 
L 2766 2266 
Q 2766 2663 2505 2880 
Q 2244 3097 1772 3097 
Q 1472 3097 1187 3025 
Q 903 2953 641 2809 
L 641 3341 
Q 956 3463 1253 3523 
Q 1550 3584 1831 3584 
Q 2591 3584 2966 3190 
Q 3341 2797 3341 1997 
z
" transform="scale(0.015625)"/>
        <path id="DejaVuSans-6e" d="M 3513 2113 
L 3513 0 
L 2938 0 
L 2938 2094 
Q 2938 2591 2744 2837 
Q 2550 3084 2163 3084 
Q 1697 3084 1428 2787 
Q 1159 2491 1159 1978 
L 1159 0 
L 581 0 
L 581 3500 
L 1159 3500 
L 1159 2956 
Q 1366 3272 1645 3428 
Q 1925 3584 2291 3584 
Q 2894 3584 3203 3211 
Q 3513 2838 3513 2113 
z
" transform="scale(0.015625)"/>
       </defs>
       <use xlink:href="#DejaVuSans-4a"/>
       <use xlink:href="#DejaVuSans-61" x="29.492188"/>
       <use xlink:href="#DejaVuSans-6e" x="90.771484"/>
      </g>
      <!-- 2016 -->
      <g transform="translate(113.275 410.27625) scale(0.1 -0.1)">
       <defs>
        <path id="DejaVuSans-32" d="M 1228 531 
L 3431 531 
L 3431 0 
L 469 0 
L 469 531 
Q 828 903 1448 1529 
Q 2069 2156 2228 2338 
Q 2531 2678 2651 2914 
Q 2772 3150 2772 3378 
Q 2772 3750 2511 3984 
Q 2250 4219 1831 4219 
Q 1534 4219 1204 4116 
Q 875 4013 500 3803 
L 500 4441 
Q 881 4594 1212 4672 
Q 1544 4750 1819 4750 
Q 2544 4750 2975 4387 
Q 3406 4025 3406 3419 
Q 3406 3131 3298 2873 
Q 3191 2616 2906 2266 
Q 2828 2175 2409 1742 
Q 1991 1309 1228 531 
z
" transform="scale(0.015625)"/>
        <path id="DejaVuSans-30" d="M 2034 4250 
Q 1547 4250 1301 3770 
Q 1056 3291 1056 2328 
Q 1056 1369 1301 889 
Q 1547 409 2034 409 
Q 2525 409 2770 889 
Q 3016 1369 3016 2328 
Q 3016 3291 2770 3770 
Q 2525 4250 2034 4250 
z
M 2034 4750 
Q 2819 4750 3233 4129 
Q 3647 3509 3647 2328 
Q 3647 1150 3233 529 
Q 2819 -91 2034 -91 
Q 1250 -91 836 529 
Q 422 1150 422 2328 
Q 422 3509 836 4129 
Q 1250 4750 2034 4750 
z
" transform="scale(0.015625)"/>
        <path id="DejaVuSans-31" d="M 794 531 
L 1825 531 
L 1825 4091 
L 703 3866 
L 703 4441 
L 1819 4666 
L 2450 4666 
L 2450 531 
L 3481 531 
L 3481 0 
L 794 0 
L 794 531 
z
" transform="scale(0.015625)"/>
        <path id="DejaVuSans-36" d="M 2113 2584 
Q 1688 2584 1439 2293 
Q 1191 2003 1191 1497 
Q 1191 994 1439 701 
Q 1688 409 2113 409 
Q 2538 409 2786 701 
Q 3034 994 3034 1497 
Q 3034 2003 2786 2293 
Q 2538 2584 2113 2584 
z
M 3366 4563 
L 3366 3988 
Q 3128 4100 2886 4159 
Q 2644 4219 2406 4219 
Q 1781 4219 1451 3797 
Q 1122 3375 1075 2522 
Q 1259 2794 1537 2939 
Q 1816 3084 2150 3084 
Q 2853 3084 3261 2657 
Q 3669 2231 3669 1497 
Q 3669 778 3244 343 
Q 2819 -91 2113 -91 
Q 1303 -91 875 529 
Q 447 1150 447 2328 
Q 447 3434 972 4092 
Q 1497 4750 2381 4750 
Q 2619 4750 2861 4703 
Q 3103 4656 3366 4563 
z
" transform="scale(0.015625)"/>
       </defs>
       <use xlink:href="#DejaVuSans-32"/>
       <use xlink:href="#DejaVuSans-30" x="63.623047"/>
       <use xlink:href="#DejaVuSans-31" x="127.246094"/>
       <use xlink:href="#DejaVuSans-36" x="190.869141"/>
      </g>
     </g>
    </g>
    <g id="xtick_2">
     <g id="line2d_2">
      <g>
       <use xlink:href="#mde55d9ef5f" x="239.71802" y="384.48" style="stroke: #000000; stroke-width: 0.8"/>
      </g>
     </g>
     <g id="text_2">
      <!-- Feb -->
      <g transform="translate(230.866457 399.078438) scale(0.1 -0.1)">
       <defs>
        <path id="DejaVuSans-46" d="M 628 4666 
L 3309 4666 
L 3309 4134 
L 1259 4134 
L 1259 2759 
L 3109 2759 
L 3109 2228 
L 1259 2228 
L 1259 0 
L 628 0 
L 628 4666 
z
" transform="scale(0.015625)"/>
        <path id="DejaVuSans-65" d="M 3597 1894 
L 3597 1613 
L 953 1613 
Q 991 1019 1311 708 
Q 1631 397 2203 397 
Q 2534 397 2845 478 
Q 3156 559 3463 722 
L 3463 178 
Q 3153 47 2828 -22 
Q 2503 -91 2169 -91 
Q 1331 -91 842 396 
Q 353 884 353 1716 
Q 353 2575 817 3079 
Q 1281 3584 2069 3584 
Q 2775 3584 3186 3129 
Q 3597 2675 3597 1894 
z
M 3022 2063 
Q 3016 2534 2758 2815 
Q 2500 3097 2075 3097 
Q 1594 3097 1305 2825 
Q 1016 2553 972 2059 
L 3022 2063 
z
" transform="scale(0.015625)"/>
        <path id="DejaVuSans-62" d="M 3116 1747 
Q 3116 2381 2855 2742 
Q 2594 3103 2138 3103 
Q 1681 3103 1420 2742 
Q 1159 2381 1159 1747 
Q 1159 1113 1420 752 
Q 1681 391 2138 391 
Q 2594 391 2855 752 
Q 3116 1113 3116 1747 
z
M 1159 2969 
Q 1341 3281 1617 3432 
Q 1894 3584 2278 3584 
Q 2916 3584 3314 3078 
Q 3713 2572 3713 1747 
Q 3713 922 3314 415 
Q 2916 -91 2278 -91 
Q 1894 -91 1617 61 
Q 1341 213 1159 525 
L 1159 0 
L 581 0 
L 581 4863 
L 1159 4863 
L 1159 2969 
z
" transform="scale(0.015625)"/>
       </defs>
       <use xlink:href="#DejaVuSans-46"/>
       <use xlink:href="#DejaVuSans-65" x="52.019531"/>
       <use xlink:href="#DejaVuSans-62" x="113.542969"/>
      </g>
     </g>
    </g>
    <g id="xtick_3">
     <g id="line2d_3">
      <g>
       <use xlink:href="#mde55d9ef5f" x="346.099393" y="384.48" style="stroke: #000000; stroke-width: 0.8"/>
      </g>
     </g>
     <g id="text_3">
      <!-- Mar -->
      <g transform="translate(336.6658 399.078438) scale(0.1 -0.1)">
       <defs>
        <path id="DejaVuSans-4d" d="M 628 4666 
L 1569 4666 
L 2759 1491 
L 3956 4666 
L 4897 4666 
L 4897 0 
L 4281 0 
L 4281 4097 
L 3078 897 
L 2444 897 
L 1241 4097 
L 1241 0 
L 628 0 
L 628 4666 
z
" transform="scale(0.015625)"/>
        <path id="DejaVuSans-72" d="M 2631 2963 
Q 2534 3019 2420 3045 
Q 2306 3072 2169 3072 
Q 1681 3072 1420 2755 
Q 1159 2438 1159 1844 
L 1159 0 
L 581 0 
L 581 3500 
L 1159 3500 
L 1159 2956 
Q 1341 3275 1631 3429 
Q 1922 3584 2338 3584 
Q 2397 3584 2469 3576 
Q 2541 3569 2628 3553 
L 2631 2963 
z
" transform="scale(0.015625)"/>
       </defs>
       <use xlink:href="#DejaVuSans-4d"/>
       <use xlink:href="#DejaVuSans-61" x="86.279297"/>
       <use xlink:href="#DejaVuSans-72" x="147.558594"/>
      </g>
     </g>
    </g>
    <g id="xtick_4">
     <g id="line2d_4">
      <g>
       <use xlink:href="#mde55d9ef5f" x="459.817413" y="384.48" style="stroke: #000000; stroke-width: 0.8"/>
      </g>
     </g>
     <g id="text_4">
      <!-- Apr -->
      <g transform="translate(451.167413 399.078438) scale(0.1 -0.1)">
       <defs>
        <path id="DejaVuSans-41" d="M 2188 4044 
L 1331 1722 
L 3047 1722 
L 2188 4044 
z
M 1831 4666 
L 2547 4666 
L 4325 0 
L 3669 0 
L 3244 1197 
L 1141 1197 
L 716 0 
L 50 0 
L 1831 4666 
z
" transform="scale(0.015625)"/>
        <path id="DejaVuSans-70" d="M 1159 525 
L 1159 -1331 
L 581 -1331 
L 581 3500 
L 1159 3500 
L 1159 2969 
Q 1341 3281 1617 3432 
Q 1894 3584 2278 3584 
Q 2916 3584 3314 3078 
Q 3713 2572 3713 1747 
Q 3713 922 3314 415 
Q 2916 -91 2278 -91 
Q 1894 -91 1617 61 
Q 1341 213 1159 525 
z
M 3116 1747 
Q 3116 2381 2855 2742 
Q 2594 3103 2138 3103 
Q 1681 3103 1420 2742 
Q 1159 2381 1159 1747 
Q 1159 1113 1420 752 
Q 1681 391 2138 391 
Q 2594 391 2855 752 
Q 3116 1113 3116 1747 
z
" transform="scale(0.015625)"/>
       </defs>
       <use xlink:href="#DejaVuSans-41"/>
       <use xlink:href="#DejaVuSans-70" x="68.408203"/>
       <use xlink:href="#DejaVuSans-72" x="131.884766"/>
      </g>
     </g>
    </g>
    <g id="xtick_5">
     <g id="line2d_5">
      <g>
       <use xlink:href="#mde55d9ef5f" x="569.86711" y="384.48" style="stroke: #000000; stroke-width: 0.8"/>
      </g>
     </g>
     <g id="text_5">
      <!-- May -->
      <g transform="translate(559.52961 399.078438) scale(0.1 -0.1)">
       <defs>
        <path id="DejaVuSans-79" d="M 2059 -325 
Q 1816 -950 1584 -1140 
Q 1353 -1331 966 -1331 
L 506 -1331 
L 506 -850 
L 844 -850 
Q 1081 -850 1212 -737 
Q 1344 -625 1503 -206 
L 1606 56 
L 191 3500 
L 800 3500 
L 1894 763 
L 2988 3500 
L 3597 3500 
L 2059 -325 
z
" transform="scale(0.015625)"/>
       </defs>
       <use xlink:href="#DejaVuSans-4d"/>
       <use xlink:href="#DejaVuSans-61" x="86.279297"/>
       <use xlink:href="#DejaVuSans-79" x="147.558594"/>
      </g>
     </g>
    </g>
    <g id="xtick_6">
     <g id="line2d_6">
      <g>
       <use xlink:href="#mde55d9ef5f" x="683.58513" y="384.48" style="stroke: #000000; stroke-width: 0.8"/>
      </g>
     </g>
     <g id="text_6">
      <!-- Jun -->
      <g transform="translate(675.77263 399.078438) scale(0.1 -0.1)">
       <defs>
        <path id="DejaVuSans-75" d="M 544 1381 
L 544 3500 
L 1119 3500 
L 1119 1403 
Q 1119 906 1312 657 
Q 1506 409 1894 409 
Q 2359 409 2629 706 
Q 2900 1003 2900 1516 
L 2900 3500 
L 3475 3500 
L 3475 0 
L 2900 0 
L 2900 538 
Q 2691 219 2414 64 
Q 2138 -91 1772 -91 
Q 1169 -91 856 284 
Q 544 659 544 1381 
z
M 1991 3584 
L 1991 3584 
z
" transform="scale(0.015625)"/>
       </defs>
       <use xlink:href="#DejaVuSans-4a"/>
       <use xlink:href="#DejaVuSans-75" x="29.492188"/>
       <use xlink:href="#DejaVuSans-6e" x="92.871094"/>
      </g>
     </g>
    </g>
    <g id="xtick_7">
     <g id="line2d_7">
      <g>
       <use xlink:href="#mde55d9ef5f" x="793.634827" y="384.48" style="stroke: #000000; stroke-width: 0.8"/>
      </g>
     </g>
     <g id="text_7">
      <!-- Jul -->
      <g transform="translate(787.602014 399.078438) scale(0.1 -0.1)">
       <defs>
        <path id="DejaVuSans-6c" d="M 603 4863 
L 1178 4863 
L 1178 0 
L 603 0 
L 603 4863 
z
" transform="scale(0.015625)"/>
       </defs>
       <use xlink:href="#DejaVuSans-4a"/>
       <use xlink:href="#DejaVuSans-75" x="29.492188"/>
       <use xlink:href="#DejaVuSans-6c" x="92.871094"/>
      </g>
     </g>
    </g>
    <g id="xtick_8">
     <g id="line2d_8">
      <g>
       <use xlink:href="#mde55d9ef5f" x="907.2" y="384.48" style="stroke: #000000; stroke-width: 0.8"/>
      </g>
     </g>
    </g>
    <g id="xtick_9">
     <g id="line2d_9">
      <defs>
       <path id="m5348666ae3" d="M 0 0 
L 0 2 
" style="stroke: #000000; stroke-width: 0.6"/>
      </defs>
      <g>
       <use xlink:href="#m5348666ae3" x="137.00497" y="384.48" style="stroke: #000000; stroke-width: 0.6"/>
      </g>
     </g>
    </g>
    <g id="xtick_10">
     <g id="line2d_10">
      <g>
       <use xlink:href="#m5348666ae3" x="162.683232" y="384.48" style="stroke: #000000; stroke-width: 0.6"/>
      </g>
     </g>
    </g>
    <g id="xtick_11">
     <g id="line2d_11">
      <g>
       <use xlink:href="#m5348666ae3" x="188.361495" y="384.48" style="stroke: #000000; stroke-width: 0.6"/>
      </g>
     </g>
    </g>
    <g id="xtick_12">
     <g id="line2d_12">
      <g>
       <use xlink:href="#m5348666ae3" x="214.039757" y="384.48" style="stroke: #000000; stroke-width: 0.6"/>
      </g>
     </g>
    </g>
    <g id="xtick_13">
     <g id="line2d_13">
      <g>
       <use xlink:href="#m5348666ae3" x="265.396283" y="384.48" style="stroke: #000000; stroke-width: 0.6"/>
      </g>
     </g>
    </g>
    <g id="xtick_14">
     <g id="line2d_14">
      <g>
       <use xlink:href="#m5348666ae3" x="291.074545" y="384.48" style="stroke: #000000; stroke-width: 0.6"/>
      </g>
     </g>
    </g>
    <g id="xtick_15">
     <g id="line2d_15">
      <g>
       <use xlink:href="#m5348666ae3" x="316.752808" y="384.48" style="stroke: #000000; stroke-width: 0.6"/>
      </g>
     </g>
    </g>
    <g id="xtick_16">
     <g id="line2d_16">
      <g>
       <use xlink:href="#m5348666ae3" x="342.43107" y="384.48" style="stroke: #000000; stroke-width: 0.6"/>
      </g>
     </g>
    </g>
    <g id="xtick_17">
     <g id="line2d_17">
      <g>
       <use xlink:href="#m5348666ae3" x="368.109333" y="384.48" style="stroke: #000000; stroke-width: 0.6"/>
      </g>
     </g>
    </g>
    <g id="xtick_18">
     <g id="line2d_18">
      <g>
       <use xlink:href="#m5348666ae3" x="393.787595" y="384.48" style="stroke: #000000; stroke-width: 0.6"/>
      </g>
     </g>
    </g>
    <g id="xtick_19">
     <g id="line2d_19">
      <g>
       <use xlink:href="#m5348666ae3" x="419.465858" y="384.48" style="stroke: #000000; stroke-width: 0.6"/>
      </g>
     </g>
    </g>
    <g id="xtick_20">
     <g id="line2d_20">
      <g>
       <use xlink:href="#m5348666ae3" x="445.144121" y="384.48" style="stroke: #000000; stroke-width: 0.6"/>
      </g>
     </g>
    </g>
    <g id="xtick_21">
     <g id="line2d_21">
      <g>
       <use xlink:href="#m5348666ae3" x="470.822383" y="384.48" style="stroke: #000000; stroke-width: 0.6"/>
      </g>
     </g>
    </g>
    <g id="xtick_22">
     <g id="line2d_22">
      <g>
       <use xlink:href="#m5348666ae3" x="496.500646" y="384.48" style="stroke: #000000; stroke-width: 0.6"/>
      </g>
     </g>
    </g>
    <g id="xtick_23">
     <g id="line2d_23">
      <g>
       <use xlink:href="#m5348666ae3" x="522.178908" y="384.48" style="stroke: #000000; stroke-width: 0.6"/>
      </g>
     </g>
    </g>
    <g id="xtick_24">
     <g id="line2d_24">
      <g>
       <use xlink:href="#m5348666ae3" x="547.857171" y="384.48" style="stroke: #000000; stroke-width: 0.6"/>
      </g>
     </g>
    </g>
    <g id="xtick_25">
     <g id="line2d_25">
      <g>
       <use xlink:href="#m5348666ae3" x="573.535433" y="384.48" style="stroke: #000000; stroke-width: 0.6"/>
      </g>
     </g>
    </g>
    <g id="xtick_26">
     <g id="line2d_26">
      <g>
       <use xlink:href="#m5348666ae3" x="599.213696" y="384.48" style="stroke: #000000; stroke-width: 0.6"/>
      </g>
     </g>
    </g>
    <g id="xtick_27">
     <g id="line2d_27">
      <g>
       <use xlink:href="#m5348666ae3" x="624.891959" y="384.48" style="stroke: #000000; stroke-width: 0.6"/>
      </g>
     </g>
    </g>
    <g id="xtick_28">
     <g id="line2d_28">
      <g>
       <use xlink:href="#m5348666ae3" x="650.570221" y="384.48" style="stroke: #000000; stroke-width: 0.6"/>
      </g>
     </g>
    </g>
    <g id="xtick_29">
     <g id="line2d_29">
      <g>
       <use xlink:href="#m5348666ae3" x="676.248484" y="384.48" style="stroke: #000000; stroke-width: 0.6"/>
      </g>
     </g>
    </g>
    <g id="xtick_30">
     <g id="line2d_30">
      <g>
       <use xlink:href="#m5348666ae3" x="701.926746" y="384.48" style="stroke: #000000; stroke-width: 0.6"/>
      </g>
     </g>
    </g>
    <g id="xtick_31">
     <g id="line2d_31">
      <g>
       <use xlink:href="#m5348666ae3" x="727.605009" y="384.48" style="stroke: #000000; stroke-width: 0.6"/>
      </g>
     </g>
    </g>
    <g id="xtick_32">
     <g id="line2d_32">
      <g>
       <use xlink:href="#m5348666ae3" x="753.283271" y="384.48" style="stroke: #000000; stroke-width: 0.6"/>
      </g>
     </g>
    </g>
    <g id="xtick_33">
     <g id="line2d_33">
      <g>
       <use xlink:href="#m5348666ae3" x="778.961534" y="384.48" style="stroke: #000000; stroke-width: 0.6"/>
      </g>
     </g>
    </g>
    <g id="xtick_34">
     <g id="line2d_34">
      <g>
       <use xlink:href="#m5348666ae3" x="804.639797" y="384.48" style="stroke: #000000; stroke-width: 0.6"/>
      </g>
     </g>
    </g>
    <g id="xtick_35">
     <g id="line2d_35">
      <g>
       <use xlink:href="#m5348666ae3" x="830.318059" y="384.48" style="stroke: #000000; stroke-width: 0.6"/>
      </g>
     </g>
    </g>
    <g id="xtick_36">
     <g id="line2d_36">
      <g>
       <use xlink:href="#m5348666ae3" x="855.996322" y="384.48" style="stroke: #000000; stroke-width: 0.6"/>
      </g>
     </g>
    </g>
    <g id="xtick_37">
     <g id="line2d_37">
      <g>
       <use xlink:href="#m5348666ae3" x="881.674584" y="384.48" style="stroke: #000000; stroke-width: 0.6"/>
      </g>
     </g>
    </g>
    <g id="text_8">
     <!-- Timestamp -->
     <g transform="translate(488.692969 423.954375) scale(0.1 -0.1)">
      <defs>
       <path id="DejaVuSans-54" d="M -19 4666 
L 3928 4666 
L 3928 4134 
L 2272 4134 
L 2272 0 
L 1638 0 
L 1638 4134 
L -19 4134 
L -19 4666 
z
" transform="scale(0.015625)"/>
       <path id="DejaVuSans-69" d="M 603 3500 
L 1178 3500 
L 1178 0 
L 603 0 
L 603 3500 
z
M 603 4863 
L 1178 4863 
L 1178 4134 
L 603 4134 
L 603 4863 
z
" transform="scale(0.015625)"/>
       <path id="DejaVuSans-6d" d="M 3328 2828 
Q 3544 3216 3844 3400 
Q 4144 3584 4550 3584 
Q 5097 3584 5394 3201 
Q 5691 2819 5691 2113 
L 5691 0 
L 5113 0 
L 5113 2094 
Q 5113 2597 4934 2840 
Q 4756 3084 4391 3084 
Q 3944 3084 3684 2787 
Q 3425 2491 3425 1978 
L 3425 0 
L 2847 0 
L 2847 2094 
Q 2847 2600 2669 2842 
Q 2491 3084 2119 3084 
Q 1678 3084 1418 2786 
Q 1159 2488 1159 1978 
L 1159 0 
L 581 0 
L 581 3500 
L 1159 3500 
L 1159 2956 
Q 1356 3278 1631 3431 
Q 1906 3584 2284 3584 
Q 2666 3584 2933 3390 
Q 3200 3197 3328 2828 
z
" transform="scale(0.015625)"/>
       <path id="DejaVuSans-73" d="M 2834 3397 
L 2834 2853 
Q 2591 2978 2328 3040 
Q 2066 3103 1784 3103 
Q 1356 3103 1142 2972 
Q 928 2841 928 2578 
Q 928 2378 1081 2264 
Q 1234 2150 1697 2047 
L 1894 2003 
Q 2506 1872 2764 1633 
Q 3022 1394 3022 966 
Q 3022 478 2636 193 
Q 2250 -91 1575 -91 
Q 1294 -91 989 -36 
Q 684 19 347 128 
L 347 722 
Q 666 556 975 473 
Q 1284 391 1588 391 
Q 1994 391 2212 530 
Q 2431 669 2431 922 
Q 2431 1156 2273 1281 
Q 2116 1406 1581 1522 
L 1381 1569 
Q 847 1681 609 1914 
Q 372 2147 372 2553 
Q 372 3047 722 3315 
Q 1072 3584 1716 3584 
Q 2034 3584 2315 3537 
Q 2597 3491 2834 3397 
z
" transform="scale(0.015625)"/>
       <path id="DejaVuSans-74" d="M 1172 4494 
L 1172 3500 
L 2356 3500 
L 2356 3053 
L 1172 3053 
L 1172 1153 
Q 1172 725 1289 603 
Q 1406 481 1766 481 
L 2356 481 
L 2356 0 
L 1766 0 
Q 1100 0 847 248 
Q 594 497 594 1153 
L 594 3053 
L 172 3053 
L 172 3500 
L 594 3500 
L 594 4494 
L 1172 4494 
z
" transform="scale(0.015625)"/>
      </defs>
      <use xlink:href="#DejaVuSans-54"/>
      <use xlink:href="#DejaVuSans-69" x="57.958984"/>
      <use xlink:href="#DejaVuSans-6d" x="85.742188"/>
      <use xlink:href="#DejaVuSans-65" x="183.154297"/>
      <use xlink:href="#DejaVuSans-73" x="244.677734"/>
      <use xlink:href="#DejaVuSans-74" x="296.777344"/>
      <use xlink:href="#DejaVuSans-61" x="335.986328"/>
      <use xlink:href="#DejaVuSans-6d" x="397.265625"/>
      <use xlink:href="#DejaVuSans-70" x="494.677734"/>
     </g>
    </g>
   </g>
   <g id="matplotlib.axis_2">
    <g id="ytick_1">
     <g id="line2d_38">
      <defs>
       <path id="m4e5df17e0c" d="M 0 0 
L -3.5 0 
" style="stroke: #000000; stroke-width: 0.8"/>
      </defs>
      <g>
       <use xlink:href="#m4e5df17e0c" x="126" y="369.36" style="stroke: #000000; stroke-width: 0.8"/>
      </g>
     </g>
     <g id="text_9">
      <!-- 0 -->
      <g transform="translate(112.6375 373.159219) scale(0.1 -0.1)">
       <use xlink:href="#DejaVuSans-30"/>
      </g>
     </g>
    </g>
    <g id="ytick_2">
     <g id="line2d_39">
      <g>
       <use xlink:href="#m4e5df17e0c" x="126" y="301.86" style="stroke: #000000; stroke-width: 0.8"/>
      </g>
     </g>
     <g id="text_10">
      <!-- 100 -->
      <g transform="translate(99.9125 305.659219) scale(0.1 -0.1)">
       <use xlink:href="#DejaVuSans-31"/>
       <use xlink:href="#DejaVuSans-30" x="63.623047"/>
       <use xlink:href="#DejaVuSans-30" x="127.246094"/>
      </g>
     </g>
    </g>
    <g id="ytick_3">
     <g id="line2d_40">
      <g>
       <use xlink:href="#m4e5df17e0c" x="126" y="234.36" style="stroke: #000000; stroke-width: 0.8"/>
      </g>
     </g>
     <g id="text_11">
      <!-- 200 -->
      <g transform="translate(99.9125 238.159219) scale(0.1 -0.1)">
       <use xlink:href="#DejaVuSans-32"/>
       <use xlink:href="#DejaVuSans-30" x="63.623047"/>
       <use xlink:href="#DejaVuSans-30" x="127.246094"/>
      </g>
     </g>
    </g>
    <g id="ytick_4">
     <g id="line2d_41">
      <g>
       <use xlink:href="#m4e5df17e0c" x="126" y="166.86" style="stroke: #000000; stroke-width: 0.8"/>
      </g>
     </g>
     <g id="text_12">
      <!-- 300 -->
      <g transform="translate(99.9125 170.659219) scale(0.1 -0.1)">
       <defs>
        <path id="DejaVuSans-33" d="M 2597 2516 
Q 3050 2419 3304 2112 
Q 3559 1806 3559 1356 
Q 3559 666 3084 287 
Q 2609 -91 1734 -91 
Q 1441 -91 1130 -33 
Q 819 25 488 141 
L 488 750 
Q 750 597 1062 519 
Q 1375 441 1716 441 
Q 2309 441 2620 675 
Q 2931 909 2931 1356 
Q 2931 1769 2642 2001 
Q 2353 2234 1838 2234 
L 1294 2234 
L 1294 2753 
L 1863 2753 
Q 2328 2753 2575 2939 
Q 2822 3125 2822 3475 
Q 2822 3834 2567 4026 
Q 2313 4219 1838 4219 
Q 1578 4219 1281 4162 
Q 984 4106 628 3988 
L 628 4550 
Q 988 4650 1302 4700 
Q 1616 4750 1894 4750 
Q 2613 4750 3031 4423 
Q 3450 4097 3450 3541 
Q 3450 3153 3228 2886 
Q 3006 2619 2597 2516 
z
" transform="scale(0.015625)"/>
       </defs>
       <use xlink:href="#DejaVuSans-33"/>
       <use xlink:href="#DejaVuSans-30" x="63.623047"/>
       <use xlink:href="#DejaVuSans-30" x="127.246094"/>
      </g>
     </g>
    </g>
    <g id="ytick_5">
     <g id="line2d_42">
      <g>
       <use xlink:href="#m4e5df17e0c" x="126" y="99.36" style="stroke: #000000; stroke-width: 0.8"/>
      </g>
     </g>
     <g id="text_13">
      <!-- 400 -->
      <g transform="translate(99.9125 103.159219) scale(0.1 -0.1)">
       <defs>
        <path id="DejaVuSans-34" d="M 2419 4116 
L 825 1625 
L 2419 1625 
L 2419 4116 
z
M 2253 4666 
L 3047 4666 
L 3047 1625 
L 3713 1625 
L 3713 1100 
L 3047 1100 
L 3047 0 
L 2419 0 
L 2419 1100 
L 313 1100 
L 313 1709 
L 2253 4666 
z
" transform="scale(0.015625)"/>
       </defs>
       <use xlink:href="#DejaVuSans-34"/>
       <use xlink:href="#DejaVuSans-30" x="63.623047"/>
       <use xlink:href="#DejaVuSans-30" x="127.246094"/>
      </g>
     </g>
    </g>
    <g id="text_14">
     <!-- Meter Reading -->
     <g transform="translate(93.832812 254.527969) rotate(-90) scale(0.1 -0.1)">
      <defs>
       <path id="DejaVuSans-20" transform="scale(0.015625)"/>
       <path id="DejaVuSans-52" d="M 2841 2188 
Q 3044 2119 3236 1894 
Q 3428 1669 3622 1275 
L 4263 0 
L 3584 0 
L 2988 1197 
Q 2756 1666 2539 1819 
Q 2322 1972 1947 1972 
L 1259 1972 
L 1259 0 
L 628 0 
L 628 4666 
L 2053 4666 
Q 2853 4666 3247 4331 
Q 3641 3997 3641 3322 
Q 3641 2881 3436 2590 
Q 3231 2300 2841 2188 
z
M 1259 4147 
L 1259 2491 
L 2053 2491 
Q 2509 2491 2742 2702 
Q 2975 2913 2975 3322 
Q 2975 3731 2742 3939 
Q 2509 4147 2053 4147 
L 1259 4147 
z
" transform="scale(0.015625)"/>
       <path id="DejaVuSans-64" d="M 2906 2969 
L 2906 4863 
L 3481 4863 
L 3481 0 
L 2906 0 
L 2906 525 
Q 2725 213 2448 61 
Q 2172 -91 1784 -91 
Q 1150 -91 751 415 
Q 353 922 353 1747 
Q 353 2572 751 3078 
Q 1150 3584 1784 3584 
Q 2172 3584 2448 3432 
Q 2725 3281 2906 2969 
z
M 947 1747 
Q 947 1113 1208 752 
Q 1469 391 1925 391 
Q 2381 391 2643 752 
Q 2906 1113 2906 1747 
Q 2906 2381 2643 2742 
Q 2381 3103 1925 3103 
Q 1469 3103 1208 2742 
Q 947 2381 947 1747 
z
" transform="scale(0.015625)"/>
       <path id="DejaVuSans-67" d="M 2906 1791 
Q 2906 2416 2648 2759 
Q 2391 3103 1925 3103 
Q 1463 3103 1205 2759 
Q 947 2416 947 1791 
Q 947 1169 1205 825 
Q 1463 481 1925 481 
Q 2391 481 2648 825 
Q 2906 1169 2906 1791 
z
M 3481 434 
Q 3481 -459 3084 -895 
Q 2688 -1331 1869 -1331 
Q 1566 -1331 1297 -1286 
Q 1028 -1241 775 -1147 
L 775 -588 
Q 1028 -725 1275 -790 
Q 1522 -856 1778 -856 
Q 2344 -856 2625 -561 
Q 2906 -266 2906 331 
L 2906 616 
Q 2728 306 2450 153 
Q 2172 0 1784 0 
Q 1141 0 747 490 
Q 353 981 353 1791 
Q 353 2603 747 3093 
Q 1141 3584 1784 3584 
Q 2172 3584 2450 3431 
Q 2728 3278 2906 2969 
L 2906 3500 
L 3481 3500 
L 3481 434 
z
" transform="scale(0.015625)"/>
      </defs>
      <use xlink:href="#DejaVuSans-4d"/>
      <use xlink:href="#DejaVuSans-65" x="86.279297"/>
      <use xlink:href="#DejaVuSans-74" x="147.802734"/>
      <use xlink:href="#DejaVuSans-65" x="187.011719"/>
      <use xlink:href="#DejaVuSans-72" x="248.535156"/>
      <use xlink:href="#DejaVuSans-20" x="289.648438"/>
      <use xlink:href="#DejaVuSans-52" x="321.435547"/>
      <use xlink:href="#DejaVuSans-65" x="386.417969"/>
      <use xlink:href="#DejaVuSans-61" x="447.941406"/>
      <use xlink:href="#DejaVuSans-64" x="509.220703"/>
      <use xlink:href="#DejaVuSans-69" x="572.697266"/>
      <use xlink:href="#DejaVuSans-6e" x="600.480469"/>
      <use xlink:href="#DejaVuSans-67" x="663.859375"/>
     </g>
    </g>
   </g>
   <g id="line2d_43">
    <path d="M 126 369.36 
L 233.451301 369.36 
L 233.604148 339.873368 
L 233.756995 369.36 
L 236.661084 369.36 
L 236.813931 344.01996 
L 236.966778 369.36 
L 238.495246 369.36 
L 238.648092 333.883958 
L 238.800939 369.36 
L 487.482684 369.36 
L 487.635531 329.276678 
L 487.788378 369.36 
L 572.618353 369.36 
L 572.771199 66.96 
L 572.924046 369.36 
L 642.163647 369.36 
L 642.316494 212.251725 
L 642.469341 181.84365 
L 642.622187 208.1052 
L 642.775034 206.7228 
L 642.927881 198.890775 
L 643.080728 209.94795 
L 643.233575 200.733525 
L 643.386421 203.0373 
L 643.539268 202.576275 
L 643.692115 198.890775 
L 643.844962 204.419025 
L 643.997809 193.36185 
L 644.150655 202.115925 
L 644.303502 198.42975 
L 644.456349 185.0688 
L 644.609196 156.9645 
L 644.762043 158.80725 
L 644.914889 165.25755 
L 645.067736 165.7179 
L 645.220583 166.639275 
L 645.37343 171.246825 
L 645.526277 171.70785 
L 645.679123 170.32545 
L 645.83197 160.65 
L 645.984817 165.25755 
L 646.137664 162.493425 
L 646.290511 210.408975 
L 646.749051 196.587 
L 646.901898 199.81215 
L 647.054745 191.058075 
L 647.207591 203.958675 
L 647.360438 198.42975 
L 647.513285 198.890775 
L 647.666132 199.81215 
L 647.818979 198.890775 
L 647.971825 206.26245 
L 648.124672 151.8966 
L 648.277519 164.336175 
L 648.430366 161.111025 
L 648.583213 162.0324 
L 648.736059 165.25755 
L 648.888906 163.4148 
L 649.041753 158.346225 
L 649.347447 215.476875 
L 649.805987 197.508375 
L 649.958834 202.115925 
L 650.111681 194.74425 
L 650.264527 197.508375 
L 650.417374 187.832925 
L 650.570221 209.026575 
L 650.723068 207.644175 
L 651.028761 211.33035 
L 651.181608 214.5555 
L 651.334455 230.220225 
L 651.640149 220.084425 
L 651.792995 189.675675 
L 651.945842 206.26245 
L 652.098689 207.183825 
L 652.251536 201.6549 
L 652.404383 217.78065 
L 652.55723 214.5555 
L 652.710076 215.937225 
L 652.862923 213.634125 
L 653.01577 207.644175 
L 653.321464 209.94795 
L 653.47431 202.115925 
L 653.627157 205.801425 
L 653.932851 220.084425 
L 654.085698 217.78065 
L 654.238544 218.702025 
L 654.391391 212.251725 
L 654.544238 226.0737 
L 654.697085 223.769925 
L 654.849932 223.769925 
L 655.002778 224.6913 
L 655.155625 222.387525 
L 655.461319 196.125975 
L 655.614166 204.419025 
L 655.767012 155.12175 
L 655.919859 152.817975 
L 656.225553 168.94305 
L 656.3784 177.2361 
L 656.531246 203.49765 
L 656.684093 194.74425 
L 656.83694 203.49765 
L 656.989787 194.283225 
L 657.142634 219.162375 
L 657.29548 216.39825 
L 657.601174 226.0737 
L 657.754021 219.6234 
L 657.906868 228.377475 
L 658.212561 218.702025 
L 658.365408 226.0737 
L 658.671102 224.23095 
L 658.823948 226.53405 
L 659.129642 190.1367 
L 659.282489 198.42975 
L 659.435336 187.372575 
L 659.588182 194.74425 
L 659.741029 185.0688 
L 659.893876 195.2046 
L 660.046723 190.597725 
L 660.19957 196.587 
L 660.352416 194.74425 
L 660.65811 198.890775 
L 660.810957 221.927175 
L 661.11665 219.6234 
L 661.422344 242.6598 
L 661.575191 233.905725 
L 661.728038 236.2095 
L 661.880884 233.445375 
L 662.033731 226.995075 
L 662.186578 231.1416 
L 662.492272 224.23095 
L 662.645118 232.98435 
L 662.797965 209.4876 
L 662.950812 320.062117 
L 663.103659 245.88495 
L 663.256506 244.0422 
L 663.409352 244.50255 
L 663.562199 242.198775 
L 663.867893 244.963575 
L 664.173586 240.356025 
L 664.326433 246.3453 
L 664.47928 245.423925 
L 664.784974 253.716975 
L 664.93782 256.942125 
L 665.090667 256.481775 
L 665.243514 255.099375 
L 665.396361 249.57045 
L 665.549208 238.973625 
L 665.702054 246.3453 
L 665.854901 241.738425 
L 666.007748 229.7592 
L 666.313442 236.2095 
L 666.466288 253.256625 
L 666.619135 254.63835 
L 666.771982 247.266675 
L 666.924829 245.423925 
L 667.077676 246.806325 
L 667.230522 246.806325 
L 667.383369 246.3453 
L 667.689063 250.491825 
L 667.84191 248.188725 
L 667.994756 248.649075 
L 668.147603 250.491825 
L 668.30045 250.031475 
L 668.453297 250.491825 
L 668.606144 251.413875 
L 668.75899 250.95285 
L 669.217531 244.963575 
L 669.370378 237.5919 
L 669.523224 236.2095 
L 669.828918 227.4561 
L 669.981765 236.2095 
L 670.134612 252.7956 
L 670.287458 253.716975 
L 670.593152 251.413875 
L 670.745999 250.95285 
L 670.898846 252.7956 
L 671.510233 248.188725 
L 671.815926 252.7956 
L 672.12162 249.57045 
L 672.274467 248.188725 
L 672.427314 249.57045 
L 672.58016 249.57045 
L 672.733007 250.491825 
L 672.885854 249.1101 
L 673.038701 249.57045 
L 673.191548 245.423925 
L 673.344394 245.423925 
L 673.497241 242.6598 
L 673.802935 255.099375 
L 673.955782 252.33525 
L 674.108628 252.33525 
L 674.261475 250.491825 
L 674.414322 252.33525 
L 674.567169 252.33525 
L 674.872862 250.031475 
L 675.025709 246.806325 
L 675.331403 251.413875 
L 675.48425 250.491825 
L 675.789943 251.413875 
L 675.94279 250.95285 
L 676.707024 250.95285 
L 676.859871 250.491825 
L 677.012718 249.1101 
L 677.165564 249.57045 
L 677.318411 248.649075 
L 677.471258 253.256625 
L 677.624105 253.256625 
L 677.929798 249.1101 
L 678.082645 248.649075 
L 678.388339 251.874225 
L 678.694032 249.57045 
L 678.846879 252.33525 
L 678.999726 250.491825 
L 679.152573 250.491825 
L 679.30542 249.1101 
L 679.458266 250.031475 
L 679.611113 251.874225 
L 679.916807 249.1101 
L 680.069654 251.874225 
L 680.528194 246.3453 
L 680.681041 246.806325 
L 680.833888 249.1101 
L 680.986734 249.57045 
L 681.139581 248.649075 
L 681.292428 249.1101 
L 681.445275 250.491825 
L 681.750968 244.50255 
L 681.903815 245.423925 
L 682.056662 242.198775 
L 682.209509 244.963575 
L 682.362356 242.198775 
L 682.515203 243.12015 
L 682.668049 246.3453 
L 682.820896 258.78555 
L 682.973743 254.178 
L 683.279437 254.178 
L 683.432283 253.256625 
L 683.737977 254.63835 
L 684.043671 253.716975 
L 684.349364 249.1101 
L 684.502211 249.57045 
L 684.655058 250.95285 
L 684.960751 255.099375 
L 685.113598 251.874225 
L 685.266445 251.874225 
L 685.724985 247.266675 
L 685.877832 197.9694 
L 686.030679 197.9694 
L 686.183526 198.42975 
L 686.489219 217.78065 
L 686.642066 215.01585 
L 687.100607 199.81215 
L 687.253453 209.026575 
L 687.4063 199.81215 
L 687.559147 201.6549 
L 687.711994 200.2725 
L 688.017687 190.597725 
L 688.170534 193.36185 
L 688.323381 198.42975 
L 688.629075 214.5555 
L 688.934768 206.7228 
L 689.240462 199.81215 
L 689.393309 200.733525 
L 689.546155 196.587 
L 689.699002 211.33035 
L 689.851849 323.2872 
L 690.157543 203.49765 
L 690.310389 207.183825 
L 690.463236 206.7228 
L 690.616083 208.1052 
L 690.76893 207.644175 
L 690.921777 205.801425 
L 691.074623 205.801425 
L 691.533164 194.283225 
L 691.686011 200.733525 
L 691.838857 200.733525 
L 691.991704 202.576275 
L 692.297398 212.712075 
L 692.603091 203.958675 
L 692.755938 203.0373 
L 692.908785 197.04735 
L 693.061632 195.665625 
L 693.214479 196.125975 
L 693.367325 195.2046 
L 693.520172 199.81215 
L 693.673019 200.733525 
L 693.978713 206.26245 
L 694.284406 207.183825 
L 694.437253 206.7228 
L 694.5901 206.7228 
L 694.742947 202.576275 
L 694.895793 204.419025 
L 695.201487 197.04735 
L 695.354334 195.665625 
L 695.812874 214.094475 
L 695.965721 212.251725 
L 696.118568 207.644175 
L 696.271415 328.815922 
L 696.424261 332.962447 
L 696.577108 204.419025 
L 696.882802 203.0373 
L 697.035649 204.419025 
L 697.188495 204.419025 
L 697.341342 205.341075 
L 697.494189 204.88005 
L 698.105576 208.1052 
L 698.564117 201.6549 
L 698.86981 195.2046 
L 699.022657 197.04735 
L 699.175504 202.576275 
L 699.328351 201.6549 
L 699.634044 213.1731 
L 699.939738 207.183825 
L 700.092585 207.644175 
L 700.551125 202.576275 
L 700.856819 205.341075 
L 701.162512 210.408975 
L 701.315359 208.56555 
L 701.773899 197.9694 
L 701.926746 198.890775 
L 702.079593 200.733525 
L 702.23244 201.193875 
L 702.385287 199.351125 
L 702.538133 199.81215 
L 702.843827 203.0373 
L 702.996674 202.115925 
L 703.149521 203.958675 
L 703.302367 208.56555 
L 703.608061 203.958675 
L 703.760908 203.49765 
L 703.913755 202.576275 
L 704.066601 203.0373 
L 704.525142 210.408975 
L 705.136529 197.508375 
L 705.442223 200.733525 
L 705.595069 200.2725 
L 705.747916 200.733525 
L 705.900763 199.351125 
L 706.05361 199.81215 
L 706.51215 206.26245 
L 706.664997 204.419025 
L 706.817844 201.193875 
L 706.970691 205.341075 
L 707.123537 200.733525 
L 707.276384 207.183825 
L 707.429231 206.26245 
L 707.887771 200.733525 
L 708.040618 198.890775 
L 708.193465 198.42975 
L 708.346312 198.890775 
L 708.652005 207.183825 
L 708.804852 210.869325 
L 708.957699 210.408975 
L 709.263393 203.0373 
L 709.569086 200.733525 
L 709.721933 205.801425 
L 709.87478 201.6549 
L 710.027627 203.958675 
L 710.180473 203.958675 
L 710.33332 204.88005 
L 710.486167 207.644175 
L 710.791861 203.49765 
L 710.944707 203.49765 
L 711.097554 202.115925 
L 711.250401 197.508375 
L 711.403248 198.890775 
L 711.708941 197.04735 
L 711.861788 199.81215 
L 712.014635 199.81215 
L 712.473176 206.26245 
L 712.626022 203.958675 
L 712.778869 199.351125 
L 712.931716 198.890775 
L 713.390256 195.2046 
L 713.543103 194.74425 
L 713.69595 188.29395 
L 713.848797 193.36185 
L 714.001644 193.822875 
L 714.460184 205.341075 
L 714.765878 203.49765 
L 714.918724 199.81215 
L 715.071571 199.81215 
L 715.224418 204.419025 
L 715.377265 204.419025 
L 715.530112 207.183825 
L 715.682958 205.801425 
L 715.835805 208.56555 
L 715.988652 207.644175 
L 716.294346 194.74425 
L 716.447192 191.97945 
L 716.600039 195.665625 
L 716.752886 191.97945 
L 716.905733 193.36185 
L 717.05858 186.91155 
L 717.211426 188.7543 
L 717.364273 192.900825 
L 717.51712 184.607775 
L 717.669967 192.440475 
L 717.97566 213.1731 
L 718.281354 202.576275 
L 718.434201 201.193875 
L 718.739894 196.125975 
L 718.892741 198.890775 
L 719.045588 198.890775 
L 719.198435 198.42975 
L 719.504128 209.026575 
L 719.656975 204.88005 
L 719.809822 204.88005 
L 719.962669 207.644175 
L 720.268362 198.42975 
L 720.421209 196.125975 
L 720.574056 191.058075 
L 720.726903 193.36185 
L 720.87975 193.36185 
L 721.032596 187.372575 
L 721.185443 191.058075 
L 721.491137 206.26245 
L 721.643984 209.026575 
L 721.79683 208.1052 
L 721.949677 206.26245 
L 722.102524 206.26245 
L 722.255371 204.419025 
L 722.408218 207.644175 
L 722.561064 207.183825 
L 722.866758 204.88005 
L 723.172452 205.801425 
L 723.325298 205.341075 
L 723.478145 197.9694 
L 723.630992 197.508375 
L 723.783839 196.587 
L 723.936686 189.215325 
L 724.089532 195.665625 
L 724.242379 193.822875 
L 724.395226 190.597725 
L 724.548073 193.36185 
L 724.70092 190.1367 
L 724.853766 192.900825 
L 725.006613 191.058075 
L 725.15946 207.644175 
L 725.312307 210.408975 
L 725.465154 202.576275 
L 725.618 207.183825 
L 725.770847 207.183825 
L 725.923694 207.644175 
L 726.076541 205.801425 
L 726.229388 206.7228 
L 726.382234 206.7228 
L 726.535081 207.644175 
L 726.687928 207.183825 
L 726.840775 204.88005 
L 726.993622 206.26245 
L 727.146468 204.419025 
L 727.299315 206.7228 
L 727.452162 203.49765 
L 727.605009 203.958675 
L 728.063549 194.283225 
L 728.369243 187.372575 
L 728.52209 192.900825 
L 728.674936 191.97945 
L 728.98063 205.341075 
L 729.286324 200.2725 
L 729.592017 200.2725 
L 729.744864 243.581175 
L 729.897711 244.50255 
L 730.050558 238.05225 
L 730.203404 176.314725 
L 730.356251 202.576275 
L 730.509098 205.801425 
L 730.814792 205.801425 
L 730.967638 207.644175 
L 731.120485 208.1052 
L 731.273332 209.4876 
L 731.426179 206.7228 
L 731.579026 201.6549 
L 731.731872 201.6549 
L 731.884719 198.890775 
L 732.037566 201.6549 
L 732.34326 199.81215 
L 732.496106 208.56555 
L 732.954647 198.42975 
L 733.107494 199.81215 
L 733.26034 199.81215 
L 733.413187 197.9694 
L 733.566034 213.1731 
L 733.718881 182.304675 
L 734.024574 169.404075 
L 734.330268 184.147425 
L 734.483115 180.0009 
L 734.635962 179.539875 
L 734.788808 159.2676 
L 734.941655 162.493425 
L 735.094502 174.01095 
L 735.247349 158.80725 
L 735.400196 160.65 
L 735.553042 153.73935 
L 735.705889 162.0324 
L 735.858736 156.503475 
L 736.317276 176.77575 
L 736.470123 170.786475 
L 736.62297 169.404075 
L 736.775817 169.864425 
L 737.08151 165.7179 
L 737.234357 166.639275 
L 737.387204 175.854375 
L 737.540051 169.404075 
L 737.692898 170.32545 
L 737.845744 176.314725 
L 738.151438 172.1682 
L 738.304285 172.629225 
L 738.457132 163.4148 
L 738.609978 169.864425 
L 738.762825 169.864425 
L 738.915672 157.885875 
L 739.068519 164.336175 
L 739.221366 165.25755 
L 739.374212 156.9645 
L 739.527059 166.178925 
L 739.679906 163.87515 
L 739.832753 174.933 
L 739.9856 169.864425 
L 740.138446 176.77575 
L 740.291293 167.1003 
L 740.596987 165.7179 
L 740.749834 166.178925 
L 740.90268 177.2361 
L 741.055527 167.1003 
L 741.361221 210.869325 
L 741.666914 168.021675 
L 741.819761 161.111025 
L 741.972608 160.18965 
L 742.125455 165.7179 
L 742.278302 156.503475 
L 742.431149 157.42485 
L 742.583995 160.65 
L 742.736842 159.2676 
L 742.889689 159.2676 
L 743.042536 164.336175 
L 743.195383 164.336175 
L 743.348229 164.796525 
L 743.501076 164.336175 
L 743.80677 173.089575 
L 743.959617 170.786475 
L 744.112463 185.529825 
L 744.26531 171.70785 
L 744.418157 172.629225 
L 744.571004 178.15815 
L 744.723851 197.04735 
L 745.029544 201.6549 
L 745.335238 209.94795 
L 745.488085 200.2725 
L 745.640931 158.80725 
L 745.793778 154.660725 
L 745.946625 158.346225 
L 746.099472 157.42485 
L 746.252319 155.5821 
L 746.405165 161.571375 
L 746.558012 155.12175 
L 746.710859 157.885875 
L 746.863706 158.346225 
L 747.016553 155.5821 
L 747.322246 168.021675 
L 747.475093 172.629225 
L 747.62794 168.4827 
L 747.780787 168.021675 
L 747.933633 169.864425 
L 748.08648 169.864425 
L 748.239327 173.089575 
L 748.545021 217.78065 
L 748.850714 206.7228 
L 749.003561 210.869325 
L 749.462101 198.42975 
L 749.614948 200.733525 
L 749.767795 197.508375 
L 749.920642 198.42975 
L 750.073489 202.576275 
L 750.226335 199.351125 
L 750.379182 191.058075 
L 750.532029 203.49765 
L 750.684876 197.9694 
L 750.837723 153.278325 
L 751.143416 167.1003 
L 751.296263 163.4148 
L 751.601957 168.021675 
L 751.754803 164.336175 
L 751.90765 169.404075 
L 752.060497 203.49765 
L 752.213344 196.587 
L 752.366191 213.634125 
L 752.519037 206.26245 
L 752.671884 207.183825 
L 753.130425 193.822875 
L 753.283271 197.508375 
L 753.436118 190.1367 
L 753.588965 195.2046 
L 753.894659 190.1367 
L 754.047505 197.508375 
L 754.200352 191.97945 
L 754.353199 192.900825 
L 754.506046 191.97945 
L 754.658893 193.36185 
L 754.811739 200.733525 
L 754.964586 199.351125 
L 755.117433 209.4876 
L 755.423127 211.33035 
L 755.575973 205.341075 
L 755.72882 205.341075 
L 755.881667 202.576275 
L 756.034514 221.927175 
L 756.493054 232.062975 
L 756.798748 228.377475 
L 756.951595 230.680575 
L 757.104441 227.4561 
L 757.257288 233.905725 
L 757.410135 233.905725 
L 757.562982 231.602625 
L 757.715829 231.602625 
L 757.868675 229.29885 
L 758.480063 199.81215 
L 758.632909 206.7228 
L 758.785756 204.88005 
L 758.938603 190.597725 
L 759.09145 199.351125 
L 759.244297 162.493425 
L 759.397143 166.178925 
L 759.54999 158.80725 
L 759.855684 210.869325 
L 760.008531 210.869325 
L 760.161377 203.0373 
L 760.314224 203.958675 
L 760.467071 197.9694 
L 760.772765 216.39825 
L 760.925611 219.162375 
L 761.231305 213.1731 
L 761.384152 221.0058 
L 761.536999 222.387525 
L 761.842692 198.890775 
L 761.995539 212.712075 
L 762.148386 211.7907 
L 762.454079 215.476875 
L 762.759773 179.079525 
L 763.065467 165.25755 
L 763.218313 165.25755 
L 763.37116 169.404075 
L 763.524007 170.32545 
L 763.676854 172.1682 
L 763.829701 168.021675 
L 764.135394 196.587 
L 764.288241 205.341075 
L 764.441088 202.115925 
L 764.593935 204.419025 
L 764.746781 210.869325 
L 764.899628 208.56555 
L 765.052475 200.2725 
L 765.205322 205.341075 
L 765.358169 203.0373 
L 765.511015 152.817975 
L 765.663862 172.629225 
L 765.816709 173.5506 
L 766.122403 167.561325 
L 766.275249 163.4148 
L 766.428096 170.32545 
L 766.580943 166.639275 
L 766.886637 168.94305 
L 767.039483 173.5506 
L 767.19233 166.639275 
L 767.498024 168.4827 
L 767.650871 164.336175 
L 767.803717 165.25755 
L 767.956564 164.796525 
L 768.109411 159.2676 
L 768.262258 160.18965 
L 768.415105 168.021675 
L 768.567951 201.6549 
L 768.720798 174.933 
L 768.873645 199.351125 
L 769.026492 166.178925 
L 769.179339 165.25755 
L 769.332185 174.933 
L 769.637879 166.639275 
L 769.790726 168.4827 
L 769.943573 162.953775 
L 770.096419 166.178925 
L 770.249266 162.493425 
L 770.402113 167.561325 
L 770.707807 195.665625 
L 770.860653 203.49765 
L 771.0135 204.88005 
L 771.166347 204.88005 
L 771.319194 206.26245 
L 771.472041 204.419025 
L 771.624887 204.88005 
L 771.777734 205.801425 
L 771.930581 205.801425 
L 772.083428 203.958675 
L 772.236275 204.419025 
L 772.389122 203.958675 
L 772.541968 202.576275 
L 772.847662 208.56555 
L 773.000509 207.644175 
L 773.153356 208.1052 
L 773.306202 206.26245 
L 773.459049 206.26245 
L 773.611896 205.801425 
L 773.764743 205.801425 
L 773.91759 203.0373 
L 774.070436 202.576275 
L 774.223283 202.576275 
L 774.528977 204.419025 
L 774.681824 206.26245 
L 774.987517 204.419025 
L 775.140364 203.958675 
L 775.293211 204.419025 
L 775.446058 205.341075 
L 775.598904 201.6549 
L 775.904598 205.801425 
L 776.057445 206.7228 
L 776.210292 203.0373 
L 776.515985 209.94795 
L 776.821679 206.26245 
L 776.974526 207.183825 
L 777.127372 203.958675 
L 777.280219 204.88005 
L 777.585913 203.958675 
L 777.73876 206.26245 
L 777.891606 212.712075 
L 778.044453 213.1731 
L 778.1973 210.869325 
L 778.350147 215.01585 
L 778.502994 211.7907 
L 778.65584 212.251725 
L 779.267228 200.2725 
L 779.420074 200.733525 
L 779.725768 200.733525 
L 779.878615 196.125975 
L 780.184308 206.26245 
L 780.337155 215.01585 
L 780.490002 207.644175 
L 780.642849 205.801425 
L 780.948542 197.508375 
L 781.101389 196.587 
L 781.254236 197.508375 
L 781.55993 203.958675 
L 781.712776 203.958675 
L 782.01847 209.026575 
L 782.324164 212.251725 
L 782.629857 208.1052 
L 782.782704 208.56555 
L 782.935551 206.26245 
L 783.241244 199.81215 
L 783.394091 202.115925 
L 783.546938 207.183825 
L 783.699785 206.7228 
L 784.005478 215.01585 
L 784.922559 195.2046 
L 785.3811 209.026575 
L 785.533946 209.026575 
L 785.686793 211.33035 
L 785.83964 211.7907 
L 785.992487 209.94795 
L 786.145334 209.94795 
L 786.29818 206.26245 
L 786.451027 206.26245 
L 786.603874 207.183825 
L 786.756721 204.419025 
L 786.909568 193.36185 
L 787.215261 202.115925 
L 787.520955 205.341075 
L 787.673802 209.4876 
L 787.979495 205.341075 
L 788.285189 201.193875 
L 788.590882 196.125975 
L 788.743729 202.115925 
L 788.896576 212.712075 
L 789.049423 205.341075 
L 789.507963 208.56555 
L 789.66081 209.94795 
L 789.813657 206.26245 
L 789.966504 205.801425 
L 790.11935 206.7228 
L 790.425044 199.351125 
L 790.577891 200.2725 
L 790.730738 197.04735 
L 791.189278 203.0373 
L 791.342125 209.4876 
L 791.800665 202.115925 
L 791.953512 199.81215 
L 792.106359 194.74425 
L 792.259206 201.6549 
L 792.412052 197.508375 
L 792.870593 215.476875 
L 793.02344 217.319625 
L 793.176286 216.39825 
L 793.329133 209.4876 
L 793.48198 208.1052 
L 793.634827 204.88005 
L 793.787674 197.9694 
L 793.94052 198.42975 
L 794.246214 204.88005 
L 794.399061 204.419025 
L 794.551908 202.115925 
L 794.704754 209.026575 
L 794.857601 208.56555 
L 795.010448 211.33035 
L 795.163295 204.419025 
L 795.316142 203.49765 
L 795.468988 199.351125 
L 795.621835 198.42975 
L 795.927529 195.665625 
L 796.080376 199.351125 
L 796.386069 209.026575 
L 796.538916 212.251725 
L 796.691763 211.7907 
L 796.84461 208.1052 
L 796.997456 209.4876 
L 797.30315 200.733525 
L 797.455997 199.81215 
L 797.608844 197.508375 
L 797.76169 198.890775 
L 797.914537 203.958675 
L 798.220231 194.283225 
L 798.373078 196.125975 
L 798.525924 208.56555 
L 798.678771 210.408975 
L 799.443005 203.49765 
L 799.595852 208.56555 
L 799.748699 218.702025 
L 799.901546 211.7907 
L 800.054392 213.1731 
L 800.207239 212.712075 
L 800.360086 210.869325 
L 800.512933 207.644175 
L 800.66578 200.2725 
L 800.818626 198.42975 
L 800.971473 199.81215 
L 801.12432 197.508375 
L 801.277167 204.419025 
L 801.58286 202.115925 
L 801.735707 203.49765 
L 801.888554 196.587 
L 802.194248 213.634125 
L 802.652788 204.88005 
L 802.805635 207.644175 
L 802.958482 207.644175 
L 803.264175 203.49765 
L 803.417022 204.419025 
L 803.722716 203.49765 
L 803.875563 204.419025 
L 804.028409 206.26245 
L 804.181256 205.801425 
L 804.334103 207.183825 
L 804.48695 206.26245 
L 804.639797 206.7228 
L 804.792643 207.644175 
L 804.94549 207.644175 
L 805.098337 206.7228 
L 805.251184 204.88005 
L 805.404031 205.801425 
L 805.556877 198.890775 
L 805.862571 209.94795 
L 806.321111 200.733525 
L 806.473958 200.2725 
L 806.779652 198.42975 
L 806.932499 214.5555 
L 807.085345 245.88495 
L 807.238192 245.88495 
L 807.391039 249.57045 
L 807.543886 250.031475 
L 807.696733 251.413875 
L 807.849579 251.413875 
L 808.002426 250.95285 
L 808.155273 246.806325 
L 808.30812 246.806325 
L 808.613813 249.1101 
L 808.76666 249.1101 
L 808.919507 250.491825 
L 809.072354 250.031475 
L 809.225201 250.491825 
L 809.378047 251.874225 
L 809.683741 248.188725 
L 809.836588 248.188725 
L 809.989435 241.738425 
L 810.142281 196.125975 
L 810.295128 194.74425 
L 810.600822 243.581175 
L 810.753669 240.81705 
L 811.212209 249.1101 
L 811.517903 211.7907 
L 811.670749 213.634125 
L 811.823596 209.4876 
L 811.976443 210.408975 
L 812.12929 209.94795 
L 812.58783 213.1731 
L 812.740677 213.634125 
L 812.893524 216.859275 
L 813.352064 213.634125 
L 813.504911 208.56555 
L 813.657758 208.1052 
L 813.810605 209.4876 
L 814.116298 200.733525 
L 814.269145 202.115925 
L 814.421992 202.115925 
L 814.574839 202.576275 
L 814.727685 200.733525 
L 814.880532 208.56555 
L 815.033379 209.026575 
L 815.186226 213.1731 
L 815.339073 211.7907 
L 815.797613 213.1731 
L 815.95046 212.712075 
L 816.256153 213.634125 
L 816.409 215.01585 
L 816.714694 215.01585 
L 816.867541 215.476875 
L 817.326081 208.56555 
L 817.478928 209.4876 
L 817.631775 207.644175 
L 817.784621 202.115925 
L 817.937468 202.115925 
L 818.090315 203.958675 
L 818.243162 203.49765 
L 818.396009 205.341075 
L 818.701702 212.712075 
L 818.854549 209.4876 
L 819.007396 211.33035 
L 819.160243 210.408975 
L 819.77163 215.01585 
L 819.924477 214.5555 
L 820.077323 214.5555 
L 820.23017 214.094475 
L 820.688711 209.94795 
L 820.994404 206.26245 
L 821.147251 204.419025 
L 821.452945 155.5821 
L 821.605791 152.817975 
L 821.758638 153.278325 
L 821.911485 152.35695 
L 822.064332 156.043125 
L 822.370025 168.021675 
L 822.522872 185.0688 
L 822.675719 181.382625 
L 822.828566 174.01095 
L 822.981413 174.933 
L 823.134259 168.4827 
L 823.439953 171.246825 
L 823.5928 169.864425 
L 823.745647 162.0324 
L 823.898493 168.021675 
L 824.05134 166.639275 
L 824.204187 168.021675 
L 824.357034 178.6185 
L 824.509881 171.70785 
L 824.662727 170.32545 
L 824.815574 164.336175 
L 824.968421 165.7179 
L 825.274115 156.503475 
L 825.426961 155.5821 
L 825.579808 156.9645 
L 825.885502 171.70785 
L 826.038349 175.854375 
L 826.649736 166.639275 
L 826.802583 167.1003 
L 826.955429 168.021675 
L 827.108276 162.953775 
L 827.261123 167.561325 
L 827.41397 164.796525 
L 827.566817 196.587 
L 827.87251 171.70785 
L 828.025357 169.404075 
L 828.178204 177.2361 
L 828.331051 172.629225 
L 828.483897 177.697125 
L 828.789591 164.336175 
L 828.942438 165.7179 
L 829.248131 178.15815 
L 829.400978 174.471975 
L 829.553825 175.39335 
L 829.706672 173.089575 
L 830.012365 162.493425 
L 830.165212 165.7179 
L 830.318059 162.953775 
L 830.470906 156.043125 
L 830.623753 163.87515 
L 830.776599 161.111025 
L 830.929446 154.660725 
L 831.082293 162.493425 
L 831.23514 154.1997 
L 831.387987 164.796525 
L 831.540833 162.0324 
L 831.69368 170.786475 
L 831.846527 171.70785 
L 832.152221 168.021675 
L 832.457914 159.728625 
L 832.916455 165.25755 
L 833.222148 177.697125 
L 833.833536 163.4148 
L 833.986382 156.503475 
L 834.139229 164.796525 
L 834.292076 160.18965 
L 834.444923 161.111025 
L 834.59777 159.2676 
L 834.750616 154.660725 
L 834.903463 167.561325 
L 835.05631 156.9645 
L 835.209157 163.4148 
L 835.362004 177.2361 
L 835.51485 170.32545 
L 835.820544 166.639275 
L 836.126238 158.346225 
L 836.279084 157.885875 
L 836.584778 160.65 
L 836.737625 164.336175 
L 836.890472 173.089575 
L 837.043318 173.5506 
L 837.196165 171.246825 
L 837.654706 155.12175 
L 837.807552 163.87515 
L 837.960399 162.0324 
L 838.113246 157.885875 
L 838.266093 162.0324 
L 838.41894 161.111025 
L 838.571786 207.644175 
L 838.87748 159.728625 
L 839.030327 171.70785 
L 839.183174 170.786475 
L 839.488867 162.953775 
L 839.641714 163.4148 
L 839.794561 163.4148 
L 839.947408 185.0688 
L 840.100254 173.5506 
L 840.253101 171.246825 
L 840.405948 159.2676 
L 840.558795 169.404075 
L 840.864488 152.817975 
L 841.170182 169.404075 
L 841.323029 209.4876 
L 841.475876 210.869325 
L 841.628722 208.56555 
L 841.781569 202.576275 
L 842.087263 205.341075 
L 842.24011 197.9694 
L 842.392956 203.0373 
L 842.545803 160.65 
L 842.851497 171.246825 
L 843.004344 170.786475 
L 843.15719 171.246825 
L 843.462884 161.571375 
L 843.615731 165.25755 
L 843.768578 162.0324 
L 843.921424 162.0324 
L 844.074271 169.864425 
L 844.227118 201.193875 
L 844.379965 198.890775 
L 844.685658 156.503475 
L 844.991352 156.503475 
L 845.144199 154.1997 
L 845.297046 156.9645 
L 845.449892 152.817975 
L 845.602739 173.089575 
L 845.755586 168.4827 
L 846.06128 154.1997 
L 846.214126 157.885875 
L 846.366973 171.246825 
L 846.51982 164.336175 
L 846.672667 168.94305 
L 846.825514 169.404075 
L 846.97836 164.796525 
L 847.131207 164.796525 
L 847.284054 169.404075 
L 847.436901 159.728625 
L 847.589748 168.4827 
L 847.742594 169.404075 
L 847.895441 169.404075 
L 848.048288 174.933 
L 848.201135 161.571375 
L 848.353982 171.246825 
L 848.506828 209.4876 
L 848.659675 199.351125 
L 848.812522 201.6549 
L 848.965369 206.7228 
L 849.118216 200.2725 
L 849.271062 202.115925 
L 849.423909 207.183825 
L 849.729603 188.7543 
L 849.88245 151.8966 
L 850.035296 168.94305 
L 850.188143 169.404075 
L 850.34099 171.246825 
L 850.493837 168.021675 
L 850.646684 173.5506 
L 850.79953 168.4827 
L 850.952377 170.32545 
L 851.105224 169.404075 
L 851.258071 174.471975 
L 851.563764 169.864425 
L 851.716611 171.246825 
L 852.022305 155.12175 
L 852.175152 161.571375 
L 852.327998 152.817975 
L 852.480845 158.80725 
L 852.633692 149.592825 
L 852.786539 170.32545 
L 852.939386 171.70785 
L 853.245079 188.7543 
L 853.397926 167.1003 
L 853.550773 163.87515 
L 853.70362 167.1003 
L 853.856466 173.5506 
L 854.16216 162.493425 
L 854.315007 180.46125 
L 854.6207 165.25755 
L 854.773547 163.87515 
L 854.926394 166.178925 
L 855.079241 171.70785 
L 855.232088 173.089575 
L 855.537781 166.178925 
L 855.690628 167.1003 
L 855.843475 156.9645 
L 856.149168 168.021675 
L 856.454862 156.9645 
L 856.607709 161.571375 
L 856.760556 152.35695 
L 856.913402 160.65 
L 857.066249 157.885875 
L 857.219096 162.0324 
L 857.371943 171.70785 
L 857.52479 164.796525 
L 857.677636 168.4827 
L 857.830483 168.021675 
L 857.98333 166.639275 
L 858.136177 167.561325 
L 858.289024 159.728625 
L 858.44187 163.4148 
L 858.594717 159.728625 
L 858.747564 167.1003 
L 858.900411 168.4827 
L 859.053258 162.493425 
L 859.206104 171.70785 
L 859.511798 156.9645 
L 859.664645 162.953775 
L 859.817492 154.660725 
L 860.123185 182.765025 
L 860.276032 197.04735 
L 860.428879 199.81215 
L 860.581726 199.351125 
L 860.887419 157.42485 
L 861.040266 171.70785 
L 861.193113 166.639275 
L 861.34596 168.4827 
L 861.498806 165.25755 
L 861.651653 164.796525 
L 861.957347 173.5506 
L 862.110194 172.1682 
L 862.263041 172.1682 
L 862.721581 164.796525 
L 862.874428 169.864425 
L 863.180121 156.503475 
L 863.332968 162.0324 
L 863.485815 150.97455 
L 863.638662 159.2676 
L 863.944355 201.6549 
L 864.250049 206.7228 
L 864.555743 156.043125 
L 864.708589 175.39335 
L 864.861436 165.25755 
L 865.014283 168.4827 
L 865.319977 155.12175 
L 865.472823 159.2676 
L 865.62567 156.503475 
L 865.931364 159.2676 
L 866.542751 173.5506 
L 866.695598 160.65 
L 866.848445 162.953775 
L 867.001291 162.0324 
L 867.154138 153.278325 
L 867.306985 161.571375 
L 867.459832 150.97455 
L 867.612679 155.5821 
L 867.765525 155.5821 
L 867.918372 176.314725 
L 868.224066 157.885875 
L 868.376913 169.864425 
L 868.529759 168.94305 
L 868.682606 166.178925 
L 868.835453 170.32545 
L 868.9883 159.2676 
L 869.141147 163.4148 
L 869.293993 175.39335 
L 869.44684 161.571375 
L 869.599687 174.01095 
L 869.752534 164.336175 
L 869.905381 167.1003 
L 870.058227 160.18965 
L 870.211074 159.728625 
L 870.363921 163.4148 
L 870.516768 155.5821 
L 870.669615 157.885875 
L 870.822461 156.043125 
L 870.975308 150.053175 
L 871.128155 155.12175 
L 871.281002 150.5142 
L 871.433849 152.817975 
L 871.586695 150.053175 
L 871.739542 156.043125 
L 871.892389 154.1997 
L 872.045236 170.786475 
L 872.656623 158.80725 
L 872.80947 163.87515 
L 872.962317 163.87515 
L 873.115163 167.1003 
L 873.26801 175.39335 
L 873.420857 169.864425 
L 873.573704 169.404075 
L 873.726551 165.7179 
L 873.879397 208.1052 
L 874.032244 204.88005 
L 874.185091 206.7228 
L 874.337938 206.7228 
L 874.490785 198.890775 
L 874.796478 203.49765 
L 874.949325 196.125975 
L 875.102172 200.2725 
L 875.407865 194.283225 
L 875.560712 167.561325 
L 875.713559 164.336175 
L 876.019253 168.4827 
L 876.172099 176.314725 
L 876.324946 170.786475 
L 876.477793 172.629225 
L 876.63064 173.089575 
L 876.936333 171.246825 
L 877.08918 174.933 
L 877.394874 163.4148 
L 877.700567 208.1052 
L 877.853414 204.419025 
L 878.006261 191.5191 
L 878.311955 205.801425 
L 878.770495 198.42975 
L 878.923342 202.576275 
L 879.076189 202.576275 
L 879.229035 154.660725 
L 879.534729 175.39335 
L 879.687576 168.4827 
L 879.840423 168.94305 
L 879.993269 171.70785 
L 880.146116 166.178925 
L 880.298963 170.32545 
L 880.45181 170.786475 
L 880.604657 172.629225 
L 880.757503 172.629225 
L 880.91035 171.70785 
L 881.063197 162.953775 
L 881.216044 161.571375 
L 881.368891 150.5142 
L 881.674584 204.88005 
L 881.827431 203.49765 
L 881.980278 197.9694 
L 882.133125 203.49765 
L 882.285971 201.6549 
L 882.438818 196.587 
L 882.744512 201.6549 
L 882.897359 159.728625 
L 883.355899 172.629225 
L 883.661593 168.021675 
L 883.814439 168.4827 
L 883.967286 162.0324 
L 884.120133 161.111025 
L 884.27298 166.639275 
L 884.425827 166.639275 
L 884.578673 168.94305 
L 884.73152 164.336175 
L 884.884367 156.043125 
L 885.037214 160.65 
L 885.190061 158.80725 
L 885.342907 147.7494 
L 885.495754 157.885875 
L 885.648601 153.278325 
L 885.801448 167.1003 
L 885.954295 195.2046 
L 886.107141 167.1003 
L 886.259988 187.832925 
L 886.565682 151.435575 
L 886.718529 167.561325 
L 886.871375 166.639275 
L 887.024222 169.404075 
L 887.177069 168.021675 
L 887.482763 158.80725 
L 887.635609 156.503475 
L 887.788456 156.503475 
L 887.941303 169.404075 
L 888.09415 170.786475 
L 888.246997 167.1003 
L 888.55269 171.246825 
L 888.705537 163.4148 
L 888.858384 163.87515 
L 889.164077 153.278325 
L 889.469771 162.0324 
L 889.622618 154.660725 
L 889.928311 160.18965 
L 890.081158 151.435575 
L 890.386852 174.471975 
L 890.539699 172.629225 
L 891.151086 156.503475 
L 891.303933 157.885875 
L 891.456779 157.885875 
L 891.609626 160.18965 
L 891.762473 159.2676 
L 891.91532 160.18965 
L 892.221014 170.786475 
L 892.37386 170.32545 
L 892.526707 170.786475 
L 892.679554 163.87515 
L 892.832401 164.336175 
L 892.985248 160.18965 
L 893.290941 164.796525 
L 893.443788 164.336175 
L 893.596635 157.885875 
L 893.749482 157.885875 
L 893.902328 168.021675 
L 894.055175 170.32545 
L 894.208022 170.786475 
L 894.513716 159.728625 
L 894.666562 158.80725 
L 894.819409 159.2676 
L 894.972256 156.9645 
L 895.125103 162.0324 
L 895.430796 159.2676 
L 895.73649 171.246825 
L 896.042184 168.94305 
L 896.19503 170.786475 
L 896.500724 160.18965 
L 896.653571 159.2676 
L 896.806418 163.87515 
L 896.959264 155.12175 
L 897.264958 167.561325 
L 897.417805 165.7179 
L 897.570652 162.493425 
L 897.723498 176.314725 
L 898.029192 162.953775 
L 898.182039 162.0324 
L 898.334886 160.18965 
L 898.487732 161.111025 
L 898.946273 175.854375 
L 899.251966 164.336175 
L 899.404813 165.25755 
L 899.55766 158.80725 
L 899.710507 166.639275 
L 899.863354 203.0373 
L 900.0162 210.869325 
L 900.169047 197.04735 
L 900.474741 192.440475 
L 900.627588 205.801425 
L 900.780434 200.733525 
L 900.933281 206.26245 
L 901.086128 200.2725 
L 901.238975 162.953775 
L 901.544668 176.77575 
L 901.697515 172.629225 
L 901.850362 172.629225 
L 902.003209 173.089575 
L 902.308902 160.18965 
L 902.461749 162.953775 
L 902.614596 180.0009 
L 902.92029 174.933 
L 903.225983 162.493425 
L 903.37883 164.336175 
L 903.531677 156.503475 
L 903.684524 186.4512 
L 903.990217 194.283225 
L 904.143064 201.6549 
L 904.295911 197.04735 
L 904.448758 202.115925 
L 904.601604 200.733525 
L 904.754451 201.6549 
L 904.907298 162.493425 
L 905.060145 166.178925 
L 905.212992 173.5506 
L 905.365838 170.32545 
L 905.518685 170.32545 
L 905.671532 171.246825 
L 905.824379 173.089575 
L 905.977226 171.70785 
L 906.282919 171.70785 
L 906.435766 173.089575 
L 906.588613 177.2361 
L 906.74146 169.404075 
L 906.894306 169.864425 
L 907.047153 159.2676 
L 907.2 162.493425 
L 907.2 162.493425 
" clip-path="url(#p5e7972c602)" style="fill: none; stroke: #1f77b4; stroke-width: 1.5; stroke-linecap: square"/>
   </g>
   <g id="patch_3">
    <path d="M 126 384.48 
L 126 51.84 
" style="fill: none; stroke: #000000; stroke-width: 0.8; stroke-linejoin: miter; stroke-linecap: square"/>
   </g>
   <g id="patch_4">
    <path d="M 907.2 384.48 
L 907.2 51.84 
" style="fill: none; stroke: #000000; stroke-width: 0.8; stroke-linejoin: miter; stroke-linecap: square"/>
   </g>
   <g id="patch_5">
    <path d="M 126 384.48 
L 907.2 384.48 
" style="fill: none; stroke: #000000; stroke-width: 0.8; stroke-linejoin: miter; stroke-linecap: square"/>
   </g>
   <g id="patch_6">
    <path d="M 126 51.84 
L 907.2 51.84 
" style="fill: none; stroke: #000000; stroke-width: 0.8; stroke-linejoin: miter; stroke-linecap: square"/>
   </g>
   <g id="text_15">
    <!-- Meter Reading with Potential Anomalies for Building 0 -->
    <g transform="translate(354.849375 45.84) scale(0.12 -0.12)">
     <defs>
      <path id="DejaVuSans-77" d="M 269 3500 
L 844 3500 
L 1563 769 
L 2278 3500 
L 2956 3500 
L 3675 769 
L 4391 3500 
L 4966 3500 
L 4050 0 
L 3372 0 
L 2619 2869 
L 1863 0 
L 1184 0 
L 269 3500 
z
" transform="scale(0.015625)"/>
      <path id="DejaVuSans-68" d="M 3513 2113 
L 3513 0 
L 2938 0 
L 2938 2094 
Q 2938 2591 2744 2837 
Q 2550 3084 2163 3084 
Q 1697 3084 1428 2787 
Q 1159 2491 1159 1978 
L 1159 0 
L 581 0 
L 581 4863 
L 1159 4863 
L 1159 2956 
Q 1366 3272 1645 3428 
Q 1925 3584 2291 3584 
Q 2894 3584 3203 3211 
Q 3513 2838 3513 2113 
z
" transform="scale(0.015625)"/>
      <path id="DejaVuSans-50" d="M 1259 4147 
L 1259 2394 
L 2053 2394 
Q 2494 2394 2734 2622 
Q 2975 2850 2975 3272 
Q 2975 3691 2734 3919 
Q 2494 4147 2053 4147 
L 1259 4147 
z
M 628 4666 
L 2053 4666 
Q 2838 4666 3239 4311 
Q 3641 3956 3641 3272 
Q 3641 2581 3239 2228 
Q 2838 1875 2053 1875 
L 1259 1875 
L 1259 0 
L 628 0 
L 628 4666 
z
" transform="scale(0.015625)"/>
      <path id="DejaVuSans-6f" d="M 1959 3097 
Q 1497 3097 1228 2736 
Q 959 2375 959 1747 
Q 959 1119 1226 758 
Q 1494 397 1959 397 
Q 2419 397 2687 759 
Q 2956 1122 2956 1747 
Q 2956 2369 2687 2733 
Q 2419 3097 1959 3097 
z
M 1959 3584 
Q 2709 3584 3137 3096 
Q 3566 2609 3566 1747 
Q 3566 888 3137 398 
Q 2709 -91 1959 -91 
Q 1206 -91 779 398 
Q 353 888 353 1747 
Q 353 2609 779 3096 
Q 1206 3584 1959 3584 
z
" transform="scale(0.015625)"/>
      <path id="DejaVuSans-66" d="M 2375 4863 
L 2375 4384 
L 1825 4384 
Q 1516 4384 1395 4259 
Q 1275 4134 1275 3809 
L 1275 3500 
L 2222 3500 
L 2222 3053 
L 1275 3053 
L 1275 0 
L 697 0 
L 697 3053 
L 147 3053 
L 147 3500 
L 697 3500 
L 697 3744 
Q 697 4328 969 4595 
Q 1241 4863 1831 4863 
L 2375 4863 
z
" transform="scale(0.015625)"/>
      <path id="DejaVuSans-42" d="M 1259 2228 
L 1259 519 
L 2272 519 
Q 2781 519 3026 730 
Q 3272 941 3272 1375 
Q 3272 1813 3026 2020 
Q 2781 2228 2272 2228 
L 1259 2228 
z
M 1259 4147 
L 1259 2741 
L 2194 2741 
Q 2656 2741 2882 2914 
Q 3109 3088 3109 3444 
Q 3109 3797 2882 3972 
Q 2656 4147 2194 4147 
L 1259 4147 
z
M 628 4666 
L 2241 4666 
Q 2963 4666 3353 4366 
Q 3744 4066 3744 3513 
Q 3744 3084 3544 2831 
Q 3344 2578 2956 2516 
Q 3422 2416 3680 2098 
Q 3938 1781 3938 1306 
Q 3938 681 3513 340 
Q 3088 0 2303 0 
L 628 0 
L 628 4666 
z
" transform="scale(0.015625)"/>
     </defs>
     <use xlink:href="#DejaVuSans-4d"/>
     <use xlink:href="#DejaVuSans-65" x="86.279297"/>
     <use xlink:href="#DejaVuSans-74" x="147.802734"/>
     <use xlink:href="#DejaVuSans-65" x="187.011719"/>
     <use xlink:href="#DejaVuSans-72" x="248.535156"/>
     <use xlink:href="#DejaVuSans-20" x="289.648438"/>
     <use xlink:href="#DejaVuSans-52" x="321.435547"/>
     <use xlink:href="#DejaVuSans-65" x="386.417969"/>
     <use xlink:href="#DejaVuSans-61" x="447.941406"/>
     <use xlink:href="#DejaVuSans-64" x="509.220703"/>
     <use xlink:href="#DejaVuSans-69" x="572.697266"/>
     <use xlink:href="#DejaVuSans-6e" x="600.480469"/>
     <use xlink:href="#DejaVuSans-67" x="663.859375"/>
     <use xlink:href="#DejaVuSans-20" x="727.335938"/>
     <use xlink:href="#DejaVuSans-77" x="759.123047"/>
     <use xlink:href="#DejaVuSans-69" x="840.910156"/>
     <use xlink:href="#DejaVuSans-74" x="868.693359"/>
     <use xlink:href="#DejaVuSans-68" x="907.902344"/>
     <use xlink:href="#DejaVuSans-20" x="971.28125"/>
     <use xlink:href="#DejaVuSans-50" x="1003.068359"/>
     <use xlink:href="#DejaVuSans-6f" x="1059.746094"/>
     <use xlink:href="#DejaVuSans-74" x="1120.927734"/>
     <use xlink:href="#DejaVuSans-65" x="1160.136719"/>
     <use xlink:href="#DejaVuSans-6e" x="1221.660156"/>
     <use xlink:href="#DejaVuSans-74" x="1285.039062"/>
     <use xlink:href="#DejaVuSans-69" x="1324.248047"/>
     <use xlink:href="#DejaVuSans-61" x="1352.03125"/>
     <use xlink:href="#DejaVuSans-6c" x="1413.310547"/>
     <use xlink:href="#DejaVuSans-20" x="1441.09375"/>
     <use xlink:href="#DejaVuSans-41" x="1472.880859"/>
     <use xlink:href="#DejaVuSans-6e" x="1541.289062"/>
     <use xlink:href="#DejaVuSans-6f" x="1604.667969"/>
     <use xlink:href="#DejaVuSans-6d" x="1665.849609"/>
     <use xlink:href="#DejaVuSans-61" x="1763.261719"/>
     <use xlink:href="#DejaVuSans-6c" x="1824.541016"/>
     <use xlink:href="#DejaVuSans-69" x="1852.324219"/>
     <use xlink:href="#DejaVuSans-65" x="1880.107422"/>
     <use xlink:href="#DejaVuSans-73" x="1941.630859"/>
     <use xlink:href="#DejaVuSans-20" x="1993.730469"/>
     <use xlink:href="#DejaVuSans-66" x="2025.517578"/>
     <use xlink:href="#DejaVuSans-6f" x="2060.722656"/>
     <use xlink:href="#DejaVuSans-72" x="2121.904297"/>
     <use xlink:href="#DejaVuSans-20" x="2163.017578"/>
     <use xlink:href="#DejaVuSans-42" x="2194.804688"/>
     <use xlink:href="#DejaVuSans-75" x="2263.408203"/>
     <use xlink:href="#DejaVuSans-69" x="2326.787109"/>
     <use xlink:href="#DejaVuSans-6c" x="2354.570312"/>
     <use xlink:href="#DejaVuSans-64" x="2382.353516"/>
     <use xlink:href="#DejaVuSans-69" x="2445.830078"/>
     <use xlink:href="#DejaVuSans-6e" x="2473.613281"/>
     <use xlink:href="#DejaVuSans-67" x="2536.992188"/>
     <use xlink:href="#DejaVuSans-20" x="2600.46875"/>
     <use xlink:href="#DejaVuSans-30" x="2632.255859"/>
    </g>
   </g>
  </g>
 </g>
 <defs>
  <clipPath id="p5e7972c602">
   <rect x="126" y="51.84" width="781.2" height="332.64"/>
  </clipPath>
 </defs>
</svg>
